<?xml version="1.0" encoding="UTF-8" standalone="no"?>
<!DOCTYPE svg PUBLIC "-//W3C//DTD SVG 1.1//EN"
 "http://www.w3.org/Graphics/SVG/1.1/DTD/svg11.dtd">
<!-- Generated by graphviz version 2.43.0 (0)
 -->
<!-- Title: G Pages: 1 -->
<svg width="400pt" height="416pt"
 viewBox="0.00 0.00 400.00 416.00" xmlns="http://www.w3.org/2000/svg" xmlns:xlink="http://www.w3.org/1999/xlink">
<g id="graph0" class="graph" transform="scale(1 1) rotate(0) translate(4 412)">
<title>G</title>
<polygon fill="transparent" stroke="transparent" points="-4,4 -4,-412 396,-412 396,4 -4,4"/>
<!-- MObj -->
<g id="node1" class="node">
<title>MObj</title>
<polygon fill="none" stroke="gray" points="381,-408 327,-408 327,-372 381,-372 381,-408"/>
<text text-anchor="middle" x="354" y="-388.1" font-family="Bitstream Vera Sans" font-size="8.00">MObj</text>
</g>
<!-- MEvent -->
<g id="node2" class="node">
<title>MEvent</title>
<polygon fill="none" stroke="gray" points="198,-335 144,-335 144,-299 198,-299 198,-335"/>
<text text-anchor="middle" x="171" y="-315.1" font-family="Bitstream Vera Sans" font-size="8.00">MEvent</text>
</g>
<!-- MObj&#45;&gt;MEvent -->
<g id="edge1" class="edge">
<title>MObj&#45;&gt;MEvent</title>
<path fill="none" stroke="black" d="M327,-378.52C295.37,-366.25 242.83,-345.87 207.57,-332.19"/>
<polygon fill="none" stroke="black" points="208.7,-328.87 198.11,-328.52 206.17,-335.4 208.7,-328.87"/>
</g>
<!-- Chain -->
<g id="node6" class="node">
<title>Chain</title>
<polygon fill="none" stroke="red" points="304,-189 250,-189 250,-153 304,-153 304,-189"/>
<text text-anchor="middle" x="277" y="-169.1" font-family="Bitstream Vera Sans" font-size="8.00">Chain</text>
</g>
<!-- MObj&#45;&gt;Chain -->
<g id="edge5" class="edge">
<title>MObj&#45;&gt;Chain</title>
<path fill="none" stroke="black" d="M355.21,-371.76C356.65,-340.8 356.3,-274.51 332,-226 326.33,-214.69 317.35,-204.37 308.28,-195.85"/>
<polygon fill="none" stroke="black" points="310.51,-193.15 300.7,-189.13 305.87,-198.39 310.51,-193.15"/>
</g>
<!-- Score -->
<g id="node8" class="node">
<title>Score</title>
<polygon fill="none" stroke="red" points="384,-36 330,-36 330,0 384,0 384,-36"/>
<text text-anchor="middle" x="357" y="-16.1" font-family="Bitstream Vera Sans" font-size="8.00">Score</text>
</g>
<!-- MObj&#45;&gt;Score -->
<g id="edge7" class="edge">
<title>MObj&#45;&gt;Score</title>
<path fill="none" stroke="black" d="M369.24,-371.96C379.81,-358.36 392,-338.27 392,-318 392,-318 392,-318 392,-97 392,-78.62 383.81,-59.76 375.35,-45.19"/>
<polygon fill="none" stroke="black" points="378.07,-42.95 369.83,-36.29 372.12,-46.64 378.07,-42.95"/>
</g>
<!-- Note -->
<g id="node3" class="node">
<title>Note</title>
<polygon fill="none" stroke="black" points="54,-262 0,-262 0,-226 54,-226 54,-262"/>
<text text-anchor="middle" x="27" y="-242.1" font-family="Bitstream Vera Sans" font-size="8.00">Note</text>
</g>
<!-- MEvent&#45;&gt;Note -->
<g id="edge2" class="edge">
<title>MEvent&#45;&gt;Note</title>
<path fill="none" stroke="black" d="M143.91,-302.65C121.23,-291.46 88.64,-275.39 63.63,-263.06"/>
<polygon fill="none" stroke="black" points="64.97,-259.82 54.45,-258.54 61.87,-266.1 64.97,-259.82"/>
</g>
<!-- Chord -->
<g id="node4" class="node">
<title>Chord</title>
<polygon fill="none" stroke="black" points="126,-262 72,-262 72,-226 126,-226 126,-262"/>
<text text-anchor="middle" x="99" y="-242.1" font-family="Bitstream Vera Sans" font-size="8.00">Chord</text>
</g>
<!-- MEvent&#45;&gt;Chord -->
<g id="edge3" class="edge">
<title>MEvent&#45;&gt;Chord</title>
<path fill="none" stroke="black" d="M153.57,-298.81C144.55,-289.92 133.39,-278.91 123.51,-269.17"/>
<polygon fill="none" stroke="black" points="125.85,-266.56 116.27,-262.03 120.93,-271.54 125.85,-266.56"/>
</g>
<!-- Clip -->
<g id="node5" class="node">
<title>Clip</title>
<polygon fill="none" stroke="black" points="198,-262 144,-262 144,-226 198,-226 198,-262"/>
<text text-anchor="middle" x="171" y="-242.1" font-family="Bitstream Vera Sans" font-size="8.00">Clip</text>
</g>
<!-- MEvent&#45;&gt;Clip -->
<g id="edge4" class="edge">
<title>MEvent&#45;&gt;Clip</title>
<path fill="none" stroke="black" d="M171,-298.81C171,-290.79 171,-281.05 171,-272.07"/>
<polygon fill="none" stroke="black" points="174.5,-272.03 171,-262.03 167.5,-272.03 174.5,-272.03"/>
</g>
<!-- MEvent&#45;&gt;Chain -->
<g id="edge10" class="edge">
<title>MEvent&#45;&gt;Chain</title>
<path fill="none" stroke="#666666" stroke-dasharray="1,5" d="M183.58,-298.92C203.98,-271.2 244.05,-216.76 264.44,-189.06"/>
<text text-anchor="middle" x="282" y="-242.4" font-family="Bitstream Vera Sans" font-size="7.00">A list of MEvents | Chains</text>
</g>
<!-- Note&#45;&gt;Chain -->
<!-- Chain&#45;&gt;Chain -->
<g id="edge11" class="edge">
<title>Chain&#45;&gt;Chain</title>
<path fill="none" stroke="#666666" stroke-dasharray="1,5" d="M304.24,-177.74C314.02,-177.89 322,-175.64 322,-171 322,-166.36 314.02,-164.11 304.24,-164.26"/>
</g>
<!-- Voice -->
<g id="node7" class="node">
<title>Voice</title>
<polygon fill="none" stroke="#cf5555" points="350,-116 296,-116 296,-80 350,-80 350,-116"/>
<text text-anchor="middle" x="323" y="-96.1" font-family="Bitstream Vera Sans" font-size="8.00">Voice</text>
</g>
<!-- Chain&#45;&gt;Voice -->
<g id="edge6" class="edge">
<title>Chain&#45;&gt;Voice</title>
<path fill="none" stroke="black" d="M288.14,-152.81C293.62,-144.35 300.33,-133.98 306.41,-124.61"/>
<polygon fill="none" stroke="black" points="309.47,-126.32 311.97,-116.03 303.59,-122.52 309.47,-126.32"/>
</g>
<!-- Voice&#45;&gt;Score -->
<g id="edge9" class="edge">
<title>Voice&#45;&gt;Score</title>
<path fill="none" stroke="#666666" stroke-dasharray="1,5" d="M321.7,-79.67C321.71,-71.58 322.64,-62 326,-54 328.7,-47.56 333.09,-41.5 337.72,-36.29"/>
<text text-anchor="middle" x="352" y="-56.4" font-family="Bitstream Vera Sans" font-size="7.00">A list of Voices</text>
</g>
</g>
</svg>
