<?xml version="1.0" encoding="UTF-8" standalone="no"?>
<!-- Created with Inkscape (http://www.inkscape.org/) -->

<svg
   width="80.232544mm"
   height="32.19112mm"
   viewBox="0 0 80.232544 32.19112"
   version="1.1"
   id="svg5"
   inkscape:version="1.1.2 (0a00cf5339, 2022-02-04)"
   sodipodi:docname="leg1.svg"
   xmlns:inkscape="http://www.inkscape.org/namespaces/inkscape"
   xmlns:sodipodi="http://sodipodi.sourceforge.net/DTD/sodipodi-0.dtd"
   xmlns="http://www.w3.org/2000/svg"
   xmlns:svg="http://www.w3.org/2000/svg">
  <sodipodi:namedview
     id="namedview7"
     pagecolor="#ffffff"
     bordercolor="#666666"
     borderopacity="1.0"
     inkscape:pageshadow="2"
     inkscape:pageopacity="0.0"
     inkscape:pagecheckerboard="0"
     inkscape:document-units="mm"
     showgrid="false"
     inkscape:zoom="2.9084436"
     inkscape:cx="199.07554"
     inkscape:cy="80.799228"
     inkscape:window-width="1920"
     inkscape:window-height="1056"
     inkscape:window-x="0"
     inkscape:window-y="24"
     inkscape:window-maximized="1"
     inkscape:current-layer="layer1"
     fit-margin-top="2"
     lock-margins="true"
     fit-margin-left="2"
     fit-margin-right="2"
     fit-margin-bottom="2" />
  <defs
     id="defs2" />
  <g
     inkscape:label="Layer 1"
     inkscape:groupmode="layer"
     id="layer1"
     transform="translate(-33.372965,-137.96634)">
    <text
       xml:space="preserve"
       style="font-style:normal;font-weight:normal;font-size:10.5833px;line-height:1.25;font-family:sans-serif;fill:#000000;fill-opacity:1;stroke:none;stroke-width:0.264583"
       x="56.281235"
       y="168.01459"
       id="text2847"><tspan
         sodipodi:role="line"
         id="tspan2845"
         style="font-style:normal;font-variant:normal;font-weight:500;font-stretch:normal;font-size:15.875px;font-family:Vollkorn;-inkscape-font-specification:'Vollkorn, Medium';font-variant-ligatures:normal;font-variant-caps:normal;font-variant-numeric:normal;font-variant-east-asian:normal;stroke-width:0.264583"
         x="56.281235"
         y="168.01459">maelzel</tspan></text>
    <path
       style="fill:#000000;stroke-width:0.0976495"
       d="m 64.345074,145.41918 c -0.147425,-0.25232 -0.607915,-0.40267 -0.896835,-0.29282 -0.144515,0.0549 -0.638694,0.6023 -1.172148,1.29827 -0.9248,1.20654 -1.162713,1.38603 -1.380204,1.04123 -0.07932,-0.12575 -0.04222,-0.2407 0.165653,-0.51324 0,0 2.869055,-3.72568 2.846953,-4.02241 0.111547,-0.60952 -0.453674,-1.06244 -0.999436,-0.80087 -0.162064,0.0777 -0.884109,0.93795 -1.788475,2.13087 -1.534493,2.02409 -1.851436,2.3194 -1.997024,1.86069 -0.07903,-0.24899 -0.229496,-0.022 1.773699,-2.67537 0.93221,-1.23477 1.720729,-2.34783 1.752264,-2.47348 0.147045,-0.58587 -0.29031,-1.08214 -0.846101,-0.96007 -0.334338,0.0734 -0.293643,0.0252 -2.554724,3.02639 -1.159584,1.53913 -1.439328,1.85534 -1.641369,1.85534 -0.48791,0 -0.290362,-0.41486 1.012567,-2.12644 1.399473,-1.8384 1.525972,-2.13112 1.10353,-2.55357 -0.296107,-0.2961 -0.734196,-0.33068 -1.018685,-0.0804 -0.106836,0.094 -0.800721,0.98382 -1.541967,1.97741 -0.741246,0.99358 -1.36178,1.82483 -1.378966,1.8472 -0.01718,0.0224 -0.0505,0.0214 -0.07403,-0.002 -0.02353,-0.0235 0.06436,-0.36987 0.195299,-0.76963 0.306942,-0.93709 0.306573,-1.30882 -0.0016,-1.61699 -0.293076,-0.29308 -0.903043,-0.3277 -1.212152,-0.0688 -0.112216,0.094 -0.560048,0.93987 -0.995183,1.87975 l -0.791153,1.70887 0.157809,1.46475 c 0.08679,0.80561 0.198805,1.69989 0.248912,1.9873 0.08881,0.5094 0.08164,0.53643 -0.285066,1.07414 -1.236353,1.81291 -3.005333,3.62001 -5.242957,5.35593 -1.497716,1.1619 -2.004388,1.6996 -2.420033,2.56821 -0.288795,0.60353 -0.303725,0.69352 -0.303725,1.83094 0,1.38443 0.114178,1.28476 -1.205757,1.05248 -1.164322,-0.20491 -2.684432,-0.62769 -5.089493,-1.41552 -1.152977,-0.37769 -2.12474,-0.6867 -2.159472,-0.6867 -0.105096,0 -0.746386,1.40351 -0.966635,2.11556 -0.453882,1.46737 -0.32737,2.87958 0.389714,4.35028 l 0.311279,0.6384 0.339183,-0.1041 c 0.942277,-0.28919 4.499884,0.75036 7.832909,2.28882 l 0.818804,0.37794 1.280663,-0.39174 c 0.833228,-0.25487 1.340366,-0.46328 1.451549,-0.5965 0.213974,-0.2564 0.221205,-0.84903 0.01397,-1.1449 -0.146304,-0.20888 -0.143698,-0.23842 0.03854,-0.43674 0.269309,-0.29308 0.594684,-0.9286 0.663655,-1.29624 l 0.05739,-0.3059 0.797226,-0.0536 c 0.438474,-0.0294 1.038909,-0.1332 1.334299,-0.23052 1.310712,-0.43181 2.464978,-1.6097 2.836744,-2.89479 0.629536,-2.17613 1.23362,-3.52263 2.265658,-5.05017 0.272144,-0.4028 0.495116,-0.78486 0.495493,-0.84901 4.06e-4,-0.0642 0.02801,-0.10809 0.06139,-0.0977 0.03339,0.0105 0.414107,-0.39846 0.846039,-0.90868 0.815609,-0.96344 0.972905,-1.08198 1.684593,-1.26952 0.254346,-0.067 0.575341,-0.2574 0.794497,-0.4712 0.335653,-0.32746 2.711776,-3.42753 3.972293,-5.18256 0.514173,-0.71589 0.616432,-1.05345 0.420637,-1.38855 z m -0.579731,0.76839 c -0.213498,0.25592 -0.327145,0.274 -0.489884,0.0779 -0.222055,-0.26756 0.368994,-0.81987 0.614572,-0.57429 0.107927,0.10792 0.06853,0.26477 -0.124688,0.49638 z m -0.510961,-3.06663 c -0.116876,0.16942 -0.223421,0.32303 -0.236765,0.34136 -0.05013,0.0688 -0.429581,-0.0993 -0.429581,-0.19034 0,-0.18242 0.428619,-0.67301 0.587987,-0.67301 0.152878,0 0.29086,0.0816 0.29086,0.17208 0,0.023 -0.09562,0.1805 -0.212501,0.34991 z m -0.226922,4.03942 c -0.31458,0.44168 -0.446009,0.49963 -0.630079,0.27784 -0.09412,-0.11341 -0.05361,-0.22691 0.207755,-0.58209 0.342456,-0.46538 0.455539,-0.52302 0.648139,-0.33043 0.138391,0.13839 0.149103,0.10829 -0.225815,0.63468 z m -0.700791,-2.77189 c -0.251167,0.33159 -0.467567,0.61789 -0.480889,0.63622 -0.05116,0.0704 -0.429539,-0.10032 -0.429539,-0.1938 0,-0.0542 0.205499,-0.36979 0.456666,-0.70138 0.251168,-0.33159 0.4666,-0.61692 0.47874,-0.63407 0.02506,-0.0354 0.431688,0.20704 0.431688,0.25738 0,0.018 -0.205499,0.30406 -0.456666,0.63565 z m -0.291375,4.06933 c -0.250301,0.32231 -0.468679,0.58602 -0.485284,0.58602 l -5.406085,-4.10074 -0.294479,-0.20969 0.457049,-0.60338 c 0.251377,-0.33187 0.470991,-0.62143 0.488031,-0.64348 0.01704,-0.022 0.117871,0.0385 0.224067,0.13465 0.192169,0.17391 0.19217,0.1759 5.9e-4,0.41944 -0.268397,0.34121 -0.255104,0.90916 0.02723,1.16329 0.573229,0.51599 0.985231,0.33922 1.829729,-0.78506 0.266304,-0.35453 0.686943,-0.87387 0.686943,-0.87387 0,0 0.0347,-0.0397 0.05182,-0.0403 0,0 0.135385,0.0925 0.225986,0.20166 0.02805,0.0338 0.07967,0.0812 0.07967,0.0812 0,0 -0.301122,0.49041 -0.65361,0.96106 -0.529844,0.70749 -0.682543,0.98504 -0.682543,1.24066 0,0.60952 0.709445,1.0166 1.251452,0.71808 0.09046,-0.0498 0.428122,-0.44452 0.750366,-0.87711 0.322243,-0.43259 0.610455,-0.78731 0.640471,-0.78826 0.03002,-0.001 0.133651,0.0561 0.230301,0.12675 0.163014,0.1192 0.129041,0.1904 -0.469585,0.9841 -0.506756,0.6719 -0.645311,0.92831 -0.645311,1.19421 0,0.77561 0.921964,1.10609 1.464744,0.52504 0.15051,-0.16112 0.313151,-0.29295 0.361422,-0.29295 0.08121,0 0.322126,0.19709 0.322126,0.26352 0,0.0161 -0.204792,0.29288 -0.455093,0.6152 z m -0.09026,-7.2726 c -0.219006,0.28713 -0.277148,0.31546 -0.439424,0.21412 -0.102862,-0.0642 -0.187021,-0.1468 -0.187021,-0.18347 0,-0.16264 0.523572,-0.66755 0.692228,-0.66755 0.2589,0 0.233666,0.2443 -0.06578,0.6369 z m -1.123633,1.48095 c -0.380868,0.50011 -0.727026,0.90929 -0.76924,0.90929 -0.04221,0 -0.131443,-0.0659 -0.198287,-0.14643 -0.101288,-0.12205 -0.0052,-0.30125 0.577093,-1.0759 0.619614,-0.82434 0.720356,-0.91783 0.890773,-0.82662 0.105681,0.0566 0.192148,0.13153 0.192148,0.1666 0,0.0351 -0.311619,0.47295 -0.692487,0.97306 z m -0.185159,7.64712 c -1.138676,1.53314 -1.428612,1.75792 -2.266705,1.75733 -0.611812,-3.7e-4 -0.729526,-0.065 -2.353292,-1.29118 -1.444297,-1.09064 -1.893108,-1.49078 -2.082165,-1.85637 -0.166348,-0.32169 -0.196039,-1.07986 -0.05648,-1.44212 0.09639,-0.25019 1.755854,-2.53839 1.84091,-2.53839 0.02585,0 2.877178,2.1569 2.877178,2.1569 2.743596,2.27035 2.80339,2.192 2.743596,2.27035 -0.04762,0.0624 -0.36399,0.48697 -0.703045,0.94348 z m -2.087781,-1.41844 c 0.170638,-0.58299 -0.119723,-1.04444 -0.546764,-1.26527 -0.378496,-0.19573 -0.931112,-0.18787 -1.279966,0.0182 -1.030502,0.78261 -0.390139,2.24524 0.666459,2.27454 0.228585,-0.0303 0.441072,-0.0804 0.700647,-0.27005 0.310877,-0.2036 0.360506,-0.41877 0.459624,-0.75742 z m -0.512968,0.0958 c -0.08254,0.21507 -0.592505,0.4666 -0.807625,0.39832 -0.09624,-0.0306 -0.27409,-0.16104 -0.395232,-0.28999 -0.393712,-0.41909 -0.04323,-1.12928 0.557308,-1.12928 0.453961,0 0.817,0.57415 0.645549,1.02095 z m 1.077662,-7.74745 c -0.388279,0.52894 -0.368507,0.51729 -0.635426,0.37444 -0.184044,-0.0985 -0.179236,-0.11953 0.12379,-0.54148 0.431541,-0.60091 0.535109,-0.67734 0.715252,-0.52784 0.194156,0.16114 0.198123,0.1476 -0.203616,0.69488 z m -1.20435,1.59015 c -0.450417,0.62258 -0.555722,0.71713 -0.707961,0.63565 -0.09836,-0.0526 -0.17884,-0.13949 -0.17884,-0.19301 0,-0.12129 1.073353,-1.55587 1.164098,-1.55587 0.101992,0 0.306283,0.22776 0.277455,0.30933 -0.0141,0.0399 -0.263737,0.40165 -0.554752,0.8039 z M 57.4502,152.9572 c -0.140442,0.1302 -0.53957,0.59926 -0.886951,1.04234 -0.347381,0.44309 -0.660911,0.80503 -0.696733,0.80433 -0.03582,-7.4e-4 -0.482585,-0.088 -0.992804,-0.19402 -0.51022,-0.106 -1.114427,-0.19331 -1.342683,-0.19401 -0.228256,-7.4e-4 -0.415011,-0.0464 -0.415011,-0.10149 0,-0.0815 1.936348,-2.51406 2.399948,-3.01495 0.107087,-0.1157 0.251865,-0.0434 0.937145,0.46778 0.445771,0.33255 0.90993,0.62959 1.031466,0.66009 0.290108,0.0728 0.279321,0.2391 -0.03437,0.52993 z m -1.911441,-10.23736 c -0.140225,0.46804 -0.260974,0.52748 -0.656232,0.32309 -0.358913,-0.1856 -0.3676,-0.27324 -0.0778,-0.78493 0.234911,-0.41478 0.477173,-0.53061 0.708402,-0.33871 0.172116,0.14285 0.176998,0.29534 0.02563,0.80055 z m -0.436262,13.41334 c -0.621033,1.02293 -1.247454,2.47773 -1.606183,3.7302 -0.367544,1.28325 -0.6116,1.7173 -1.321236,2.34979 -0.685366,0.61086 -1.551009,0.97187 -2.528509,1.05449 -0.65505,0.0554 -0.730619,0.0435 -0.785587,-0.12375 -0.03345,-0.10176 -0.188489,-0.45442 -0.344532,-0.78371 -0.222327,-0.46916 -0.394548,-0.67483 -0.795973,-0.95061 -0.509718,-0.35017 -1.383113,-0.60331 -1.683652,-0.48798 -0.272226,0.10446 -0.479752,-0.59235 -0.484439,-1.62663 -0.0039,-0.85437 0.02118,-0.981 0.30917,-1.56239 0.552161,-1.11472 1.354465,-1.71415 3.079718,-2.30094 1.84106,-0.62619 4.360279,-0.71726 6.249801,-0.22594 0.201402,0.0524 0.366186,0.11394 0.366186,0.13682 0,0.0229 -0.204644,0.37867 -0.454764,0.79065 z m -1.95e-4,-12.1113 c -0.18718,0.55587 -0.259313,0.66169 -0.683342,0.66372 -0.171053,7.4e-4 -0.855507,0.15564 -0.780597,0.0306 l 0.05372,-0.0897 0.169452,-0.3466 c 0.147881,-0.30247 0.313552,-0.70083 0.389144,-0.87538 0.07559,-0.17455 0.160571,-0.31736 0.188843,-0.31736 0.07089,0 0.824821,0.38757 0.824821,0.42402 0,0.0162 -0.07292,0.246 -0.162044,0.51067 z m -1.374052,8.62534 -1.344602,1.64443 -0.976668,0.11188 c -0.537167,0.0615 -1.327939,0.19558 -1.75727,0.29787 -0.429331,0.10228 -0.790962,0.17562 -0.803624,0.16295 -0.01266,-0.0127 0.282652,-0.27764 0.656255,-0.58885 1.018496,-0.8484 2.630326,-2.557 3.431792,-3.63783 0.39117,-0.52752 0.720189,-0.97368 0.731152,-0.99146 0.01096,-0.0178 0.270744,0.17195 0.577291,0.42164 0.306546,0.24968 0.640392,0.50583 0.741878,0.56921 0.101488,0.0634 0.162893,0.17159 0.13646,0.24048 -0.02643,0.0689 -0.653133,0.86524 -1.392664,1.76968 z m 0.946351,-7.35288 c -0.11169,0.29377 -0.887446,1.39851 -0.985225,1.40305 -0.09102,0.004 -0.287339,-1.42786 -0.219851,-1.60374 0.0319,-0.0831 0.135039,-0.15111 0.229212,-0.15111 0.09417,0 0.375095,-0.0279 0.624275,-0.0621 0.48982,-0.0671 0.520671,-0.0308 0.351589,0.4139 z m -6.446935,18.91226 c -0.229005,0.82464 -1.079756,1.43766 -1.995192,1.43766 -0.703386,0 -1.085808,-0.16697 -1.543094,-0.67372 -0.460581,-0.51041 -0.557127,-0.75926 -0.557127,-1.43599 0,-1.54647 1.607249,-2.55765 2.996427,-1.88516 0.957386,0.46347 1.396608,1.48548 1.098986,2.55721 z m -0.848714,-1.19194 c -0.638324,-1.25183 -2.464771,-0.85899 -2.464771,0.53013 0,1.36683 1.891461,1.82474 2.450753,0.59331 0.22633,-0.49833 0.228873,-0.70208 0.01402,-1.12344 z m -0.585746,1.05609 c -0.09399,0.11321 -0.311939,0.23307 -0.484337,0.26637 -0.262327,0.0507 -0.361865,0.0121 -0.61031,-0.23632 -0.168633,-0.16863 -0.296861,-0.39986 -0.296861,-0.53532 0,-0.3113 0.322636,-0.71483 0.634021,-0.79298 0.264751,-0.0665 0.778427,0.14499 0.863018,0.35523 0.109437,0.272 0.05613,0.74831 -0.105531,0.94302 z m 0.830022,2.62066 c -0.06713,0.052 -0.58877,0.23874 -1.15919,0.41496 l -1.037128,0.3204 -1.257639,-0.53308 c -0.691701,-0.29319 -1.397289,-0.58842 -1.567972,-0.65607 -0.450244,-0.17843 -0.635222,-0.70471 -0.689061,-1.96045 -0.04765,-1.11137 0.08473,-1.95663 0.464333,-2.96488 l 0.215531,-0.57245 0.355065,0.0601 c 0.195285,0.0331 0.73956,0.11365 1.209499,0.17903 0.469938,0.0654 0.854434,0.15311 0.854434,0.19494 0,0.0418 -0.04382,0.0761 -0.09737,0.0761 -0.21432,0 -0.867419,0.7126 -1.052333,1.1482 -0.309073,0.72809 -0.352804,1.2103 -0.167856,1.85093 0.455719,1.57854 2.015075,2.33629 3.575538,1.73748 0.328909,-0.12622 0.636542,0.48599 0.354147,0.70477 z m -5.868966,-5.09961 c -0.415537,1.27413 -0.520046,2.85134 -0.25522,3.85167 0.04896,0.18496 0.07075,0.35456 0.04842,0.37689 -0.02233,0.0223 -0.204884,-0.0411 -0.405666,-0.14098 -0.526068,-0.26168 -0.656,-0.68403 -0.656686,-2.13459 -4.8e-4,-1.08021 0.02561,-1.24811 0.334137,-2.14829 l 0.334691,-0.9765 0.318938,0.0146 c 0.433229,0.0198 0.638226,0.10945 0.582578,0.25479 -0.02553,0.0667 -0.161067,0.47278 -0.301193,0.90244 z m -1.459169,-0.24412 c -0.338133,0.97294 -0.463644,2.52994 -0.274889,3.41008 0.06186,0.28842 0.09433,0.54253 0.07217,0.5647 -0.02216,0.0221 -0.411049,-0.0986 -0.601525,-0.17823 -0.294293,-0.12296 -0.154318,-0.14802 -0.283894,-0.58434 -0.317093,-1.06777 -0.130237,-2.85682 0.435806,-4.17263 l 0.209437,-0.48684 0.437283,0.149 c 0.344501,0.11738 0.422091,0.18286 0.36568,0.30861 -0.03938,0.0878 -0.201413,0.53314 -0.360068,0.98965 z m -1.540047,0.12302 c -0.224939,0.881 -0.275352,2.28739 -0.107506,2.99912 0.05665,0.24023 0.09052,0.44926 0.07527,0.46451 -0.01526,0.0152 -0.396272,-0.0424 -0.562553,-0.0756 -0.277854,-0.0606 -0.32181,-0.44105 -0.32181,-0.44105 0,0 -0.351209,-1.01792 -0.06408,-2.63664 0.146071,-0.82351 0.595403,-2.1967 0.752377,-2.25694 0.06289,-0.0241 0.272755,0.0223 0.466378,0.10322 l 0.352041,0.14709 -0.194138,0.45291 c -0.106776,0.2491 -0.284964,0.80863 -0.395974,1.24342 z m -1.41833,-0.13884 c -0.17956,0.93514 -0.175881,2.29978 0.0078,2.90537 0.07998,0.26365 0.145894,0.49035 0.146475,0.50377 5.9e-4,0.0134 -0.213982,0.0244 -0.476808,0.0244 H 36.53632 l -0.251664,-0.62864 c -0.600566,-1.50019 -0.531242,-2.87674 0.230436,-4.57572 0.305403,-0.68122 0.309666,-0.68423 0.741899,-0.52304 0.209843,0.0782 0.457163,0.16667 0.549602,0.1965 0.154127,0.0497 0.147314,0.10925 -0.08213,0.71751 -0.137607,0.3648 -0.31211,0.98572 -0.387783,1.37983 z"
       id="path1318"
       sodipodi:nodetypes="ssssccsssssssssssssssssscssssssssssscsscssssscsssscssssssssssssssssssssssssssssscccssscsscssccsssssssssssssssssssssssscssssssscsccccsssssssssssssssssscscssssssssssssssssssssssssssscsssssscssssssssssssssssssssssssssssssssssscsssscsssssssssssssscssssssssscssssssccssscsssssscssssss" />
  </g>
</svg>
